It tells the tale of Petronella (a Scottish/Romany girl) and Fergal (her mysterious Irish traveller boyfriend). As their doomed relationship plays out, a Beast stalks the estate, killing locals, working its way towards our protagonists. Meanwhile Cathal and Liam, two mysterious travellers from Ireland use ritual and magic on a blood hunt. Mary, Fergal's mother performs ritual and magic of her own. As Cathal comes face to face with Mary in a vicious finale we know one thing: the Beast must die...
 
http://www.imdb.com/title/tt1396219/

Subs: Dutch, English.

Petronella is een Schotse zigeunervrouw en heeft een relatie met Fergal, een mysterieuze Ierse reiziger. Als hun verdoemde relatie bekend wordt, terroriseert een vreemd beest het landgoed. Het vermoordt de bewoners, en komt zo dichter bij Petronella en Fergal. Ondertussen zijn de mysterieuze Ierse reizigers Cathal en Liam bezig met het opvoeren van een ritueel, omdat ze jacht maken op een vampier. Ook Mary (Fergal's moeder) voert een ritueel op en is bezig met magie. Maar dan komen Cathal en Mary tegenover elkaar te staan...
 
http://www.moviemeter.nl/film/61942

Subs: Engels, Nederlands.

General
Complete name                    : Outcast-AC3-XviD-DVDRip 2010 TBS\Outcast-AC3-XviD-DVDRip 2010.avi
Format                           : AVI
Format/Info                      : Audio Video Interleave
File size                        : 1.29 GiB
Duration                         : 1h 33mn
Overall bit rate                 : 1 976 Kbps
Writing application              : VirtualDubMod 1.5.4.1 (build 2178/release)
Writing library                  : VirtualDubMod build 2178/release

Video
ID                               : 0
Format                           : MPEG-4 Visual
Format profile                   : Simple@L3
Format settings, BVOP            : No
Format settings, QPel            : No
Format settings, GMC             : No warppoints
Format settings, Matrix          : Default (H.263)
Codec ID                         : XVID
Codec ID/Hint                    : XviD
Duration                         : 1h 33mn
Bit rate                         : 1 518 Kbps
Width                            : 720 pixels
Height                           : 400 pixels
Display aspect ratio             : 16:9
Frame rate                       : 25.000 fps
Color space                      : YUV
Chroma subsampling               : 4:2:0
Bit depth                        : 8 bits
Scan type                        : Progressive
Compression mode                 : Lossy
Bits/(Pixel*Frame)               : 0.211
Stream size                      : 1 018 MiB (77%)
Writing library                  : XviD 1.1.2 (UTC 2006-11-01)

Audio
ID                               : 1
Format                           : AC-3
Format/Info                      : Audio Coding 3
Mode extension                   : CM (complete main)
Codec ID                         : 2000
Duration                         : 1h 33mn
Bit rate mode                    : Constant
Bit rate                         : 448 Kbps
Channel(s)                       : 6 channels
Channel positions                : Front: L C R, Side: L R, LFE
Sampling rate                    : 48.0 KHz
Bit depth                        : 16 bits
Compression mode                 : Lossy
Stream size                      : 300 MiB (23%)
Alignment                        : Split accross interleaves
Interleave, duration             : 40 ms (1.00 video frame)
Interleave, preload duration     : 500 ms

Enjoy..

TBS.

Thanks to Simply ReleaseS Toppers.